<svg xmlns="http://www.w3.org/2000/svg" width="33" height="30" viewBox="0 0 33 30"><defs><clipPath id="l68qa"><path d="M0 .14h32.736v6.583H0z"/></clipPath><clipPath id="l68qb"><path d="M0 12.2h32.736v6.582H0z"/></clipPath><clipPath id="l68qc"><path d="M0 23.42h32.736v6.584H0z"/></clipPath></defs><g><g><g><g/><g clip-path="url(#l68qa)"><path fill="#ff6700" d="M29.569.14h-26.4C1.426.14 0 1.621 0 3.432c0 1.81 1.426 3.29 3.169 3.29h26.4c1.741 0 3.167-1.48 3.167-3.29S31.31.14 29.569.14"/></g></g><g><g/><g clip-path="url(#l68qb)"><path fill="#ff6700" d="M29.569 12.2h-26.4C1.426 12.2 0 13.681 0 15.492c0 1.81 1.426 3.29 3.169 3.29h26.4c1.741 0 3.167-1.48 3.167-3.29S31.31 12.2 29.569 12.2"/></g></g><g><g/><g clip-path="url(#l68qc)"><path fill="#ff6700" d="M29.569 23.42h-26.4C1.426 23.42 0 24.901 0 26.712c0 1.81 1.426 3.292 3.169 3.292h26.4c1.741 0 3.167-1.481 3.167-3.292 0-1.81-1.426-3.292-3.167-3.292"/></g></g></g></g></svg>